<svg width="372" height="115" viewBox="0 0 372 115" fill="none" xmlns="http://www.w3.org/2000/svg">
<rect width="372" height="115" fill="#E5E5E5"/>
<rect width="372" height="115" fill="white"/>
<path d="M144.94 41.93C145.127 43.05 145.08 44.4733 144.8 46.2C144.8 46.7133 144.753 47.2267 144.66 47.74C144.333 49.14 144.17 50.0733 144.17 50.54C144.17 51.1933 144.03 52.5933 143.75 54.74C143.657 56.3267 143.61 58.7767 143.61 62.09C143.61 65.4033 143.797 68.25 144.17 70.63C144.543 73.01 144.893 74.2467 145.22 74.34C145.593 74.3867 145.943 74.1067 146.27 73.5C146.223 73.2667 146.363 72.66 146.69 71.68C147.11 69.2067 147.577 67.0133 148.09 65.1C148.603 63.1867 148.883 61.95 148.93 61.39C148.977 61.0633 149.117 60.1767 149.35 58.73C149.77 57.2367 150.027 55.6733 150.12 54.04V53.48C150.307 50.96 150.4 49.1867 150.4 48.16C150.4 47.1333 150.377 46.27 150.33 45.57L150.4 42.98C150.447 42.3733 150.657 41.86 151.03 41.44C151.077 41.44 151.24 41.37 151.52 41.23C151.847 41.09 152.15 40.9733 152.43 40.88C152.757 40.74 153.27 40.7633 153.97 40.95C154.67 41.09 155.137 41.2533 155.37 41.44C155.603 41.58 155.79 41.7667 155.93 42C156.07 42.2333 156.187 42.4433 156.28 42.63C156.373 42.77 156.467 43.0267 156.56 43.4C156.7 44.1933 156.84 45.7333 156.98 48.02C157.12 50.3067 157.167 51.8 157.12 52.5C157.073 53.2 157.05 54.0633 157.05 55.09L156.98 56.07C156.98 56.6767 156.863 58.3567 156.63 61.11C156.397 63.8167 156.187 65.4967 156 66.15C155.907 66.99 155.86 67.5033 155.86 67.69L155.65 68.88C155.65 69.02 155.627 69.16 155.58 69.3C155.533 69.44 155.393 70 155.16 70.98C154.927 71.9133 154.787 72.4267 154.74 72.52L154.39 74.06C153.457 76.2067 152.873 77.42 152.64 77.7C152.64 77.9333 152.173 78.5633 151.24 79.59L150.12 81.06L149.56 81.48C147.74 83.3 145.71 83.44 143.47 81.9L141.72 80.64C141.44 80.22 141.067 79.8 140.6 79.38C140.553 79.24 140.343 78.9833 139.97 78.61C139.597 78.19 139.27 77.77 138.99 77.35C138.71 76.8833 138.57 76.58 138.57 76.44C138.57 76.2533 138.36 75.7167 137.94 74.83C137.66 74.4567 137.403 73.9433 137.17 73.29C137.077 73.1967 136.89 72.6833 136.61 71.75C136.423 71.4233 136.283 70.8167 136.19 69.93L135.35 73.15C135.35 73.5233 135.187 74.0833 134.86 74.83L134.44 76.23C132.573 80.71 131.5 83.16 131.22 83.58C130.38 84.6067 129.68 85.26 129.12 85.54C128.56 85.8667 127.72 85.96 126.6 85.82C125.713 85.7733 124.267 85.4467 122.26 84.84L121.14 83.65C120.673 83.1833 120.393 82.6233 120.3 81.97C119.833 80.8967 119.507 80.15 119.32 79.73C119.18 79.31 119.017 78.5167 118.83 77.35V75.6C118.737 75.46 118.667 74.5033 118.62 72.73C118.527 71.9833 118.48 71.54 118.48 71.4L118.55 70.91C118.27 70.63 118.083 69.3467 117.99 67.06L117.92 66.57C117.92 66.43 117.897 66.1967 117.85 65.87C117.803 65.5433 117.71 64.75 117.57 63.49L117.36 59.85C117.453 59.3833 117.453 58.7767 117.36 58.03V56.7C117.36 54.04 117.547 52.15 117.92 51.03L118.2 49.63C118.2 49.4433 118.247 49.1867 118.34 48.86C118.48 48.2533 118.643 47.6467 118.83 47.04C119.017 46.3867 119.157 45.6867 119.25 44.94C119.343 44.1467 119.507 43.5867 119.74 43.26C119.973 42.8867 120.347 42.4433 120.86 41.93C121.373 41.4167 121.817 41.09 122.19 40.95C123.03 40.81 123.567 40.74 123.8 40.74C124.313 40.5533 125.177 40.6 126.39 40.88C126.763 40.88 127.323 41.0667 128.07 41.44C128.537 41.7667 128.793 42.2333 128.84 42.84C128.933 43.4933 128.863 44.6133 128.63 46.2C128.397 47.74 128.21 48.58 128.07 48.72C128.303 48.9533 128.327 49.5367 128.14 50.47C128.14 51.6367 128.07 52.85 127.93 54.11C127.837 55.3233 127.79 56.0933 127.79 56.42V57.26C127.743 57.68 127.72 58.2167 127.72 58.87C127.58 59.6167 127.51 60.7833 127.51 62.37C127.417 63.4433 127.393 64.1433 127.44 64.47L127.3 65.87V66.85C127.3 67.41 127.323 67.8067 127.37 68.04C127.277 69.1133 127.253 70.5133 127.3 72.24C127.393 73.9667 127.533 74.83 127.72 74.83L130.03 70.91C130.217 70.49 130.567 69.3933 131.08 67.62L133.6 62.86C134.113 61.3667 134.417 60.5267 134.51 60.34L135 59.15C135.233 59.0567 135.397 58.7533 135.49 58.24C135.63 57.7267 135.793 57.0967 135.98 56.35C136.213 55.6033 136.353 54.53 136.4 53.13C136.447 51.6833 136.657 50.5867 137.03 49.84C137.03 48.86 137.287 47.1567 137.8 44.73C137.893 43.9833 137.94 43.4233 137.94 43.05C138.407 41.79 138.897 40.9267 139.41 40.46C139.923 39.9467 140.88 39.8533 142.28 40.18C143.727 40.46 144.613 41.0433 144.94 41.93ZM167.211 40.11C170.338 40.11 172.531 40.74 173.791 42C173.791 42.7933 173.254 44.4033 172.181 46.83C171.994 47.6233 171.691 48.2533 171.271 48.72L170.361 49.63C170.128 49.77 169.894 49.84 169.661 49.84C167.981 50.26 166.674 49.9333 165.741 48.86C165.554 48.58 165.321 48.37 165.041 48.23C164.808 48.09 164.621 47.67 164.481 46.97C164.061 46.3633 163.851 45.8967 163.851 45.57C163.758 42.6767 164.808 40.8567 167.001 40.11H167.211ZM166.651 56.63C167.118 56.3967 168.214 56.63 169.941 57.33C170.128 57.5167 170.408 57.7033 170.781 57.89L171.901 58.8C172.088 58.9867 172.181 59.29 172.181 59.71V65.87C172.181 66.8033 172.134 67.6433 172.041 68.39V68.81C171.901 70.7233 172.018 75.04 172.391 81.76C172.531 83.0667 172.228 83.86 171.481 84.14C170.688 84.14 170.174 84.0233 169.941 83.79C169.754 83.6967 169.591 83.65 169.451 83.65H168.961L168.541 83.79C168.401 83.79 168.144 83.6967 167.771 83.51C167.398 83.2767 167.141 83.0433 167.001 82.81C166.908 82.5767 166.721 82.4367 166.441 82.39C165.928 82.2033 165.648 81.8533 165.601 81.34C164.948 80.08 164.598 79.3333 164.551 79.1C164.551 78.8667 164.481 78.61 164.341 78.33L163.991 72.24C163.991 71.54 164.038 71.0033 164.131 70.63V68.95C164.178 68.4367 164.224 67.5033 164.271 66.15C164.318 64.75 164.388 63.63 164.481 62.79C164.388 61.5767 164.341 60.76 164.341 60.34C164.341 59.92 164.364 59.6167 164.411 59.43C163.898 58.9167 163.921 58.2167 164.481 57.33C165.088 56.8633 165.671 56.63 166.231 56.63H166.651ZM181.53 56.84C182.79 55.3 184.517 54.4833 186.71 54.39C190.304 54.25 192.964 55.1367 194.69 57.05C196.464 58.9633 197.397 60.8533 197.49 62.72C197.63 64.5867 197.164 65.59 196.09 65.73C194.55 65.7767 193.547 65.5667 193.08 65.1C192.66 65.1467 192.124 64.8433 191.47 64.19C191.19 64.05 190.817 63.5133 190.35 62.58L189.58 60.83C189.207 59.99 188.74 59.5233 188.18 59.43C187.48 59.71 187.13 60.41 187.13 61.53C187.317 63.7233 188.367 65.8233 190.28 67.83C190.28 67.83 190.304 67.9 190.35 68.04C190.444 68.1333 190.794 68.5067 191.4 69.16C195.087 73.22 197 76.4867 197.14 78.96C197.14 80.5467 196.814 81.5967 196.16 82.11C194.154 84.49 191.54 85.7267 188.32 85.82C185.1 85.9133 182.44 84.91 180.34 82.81C179.78 82.25 179.5 81.7133 179.5 81.2C179.22 80.3133 179.127 79.73 179.22 79.45C179.08 78.1433 179.08 77.1633 179.22 76.51C179.5 75.0167 180.597 74.2467 182.51 74.2C183.21 74.2 183.654 74.62 183.84 75.46C184.447 77.84 185.007 79.4033 185.52 80.15C186.08 80.8967 186.967 81.2467 188.18 81.2C189.72 81.1067 190.444 80.2433 190.35 78.61C190.304 76.9767 189.534 75.46 188.04 74.06C187.574 73.5 187.107 73.08 186.64 72.8C186.22 72.4733 185.94 72.24 185.8 72.1C185.754 71.96 185.637 71.82 185.45 71.68C184.517 70.9333 183.327 69.6967 181.88 67.97C180.48 66.2433 179.734 64.6333 179.64 63.14C179.454 60.48 180.084 58.38 181.53 56.84ZM203.989 42.35L204.129 41.44C204.129 41.3 204.176 41.09 204.269 40.81C204.456 40.7633 204.549 40.6 204.549 40.32C204.549 40.04 204.596 39.7833 204.689 39.55C204.643 39.27 204.829 38.8267 205.249 38.22C205.669 37.5667 206.089 37.0767 206.509 36.75C206.789 36.75 206.976 36.7033 207.069 36.61H207.909C209.216 36.61 209.986 36.7033 210.219 36.89C210.733 37.1233 210.989 37.9633 210.989 39.41C211.036 39.55 211.059 39.9 211.059 40.46L210.989 40.95V41.51C210.989 41.7433 210.989 42 210.989 42.28C211.036 42.56 211.036 42.84 210.989 43.12V45.01C210.896 47.9967 210.849 49.98 210.849 50.96C210.849 51.8933 210.826 52.4067 210.779 52.5C210.826 52.7333 210.849 54.4133 210.849 57.54C210.989 59.8733 211.059 62.09 211.059 64.19V65.8C211.059 66.8733 211.036 67.62 210.989 68.04L211.059 68.67C210.966 68.7633 210.919 69.0433 210.919 69.51V70.49L211.689 68.46C211.689 68.0867 211.899 67.55 212.319 66.85L212.599 65.8C212.599 65.6133 212.786 65.1233 213.159 64.33C213.579 63.5367 213.883 62.7667 214.069 62.02L214.559 61.18C214.559 60.7133 214.653 60.3867 214.839 60.2L214.909 59.78C215.283 59.1267 215.469 58.7067 215.469 58.52L215.539 57.47C215.539 57.3767 215.586 57.26 215.679 57.12C216.006 56.7467 216.239 56.28 216.379 55.72C217.546 54.18 219.133 53.55 221.139 53.83C223.566 54.1567 224.779 55.6967 224.779 58.45V60.55C224.919 61.25 224.896 61.7867 224.709 62.16L224.779 63.35V64.68L224.989 68.67V70.14C224.989 70.4667 224.966 70.7467 224.919 70.98C224.966 71.12 224.989 71.4233 224.989 71.89C224.896 71.9367 224.896 72.1467 224.989 72.52C225.083 72.8467 225.129 73.1033 225.129 73.29C225.129 73.43 225.176 74.0833 225.269 75.25C225.269 78.0033 225.573 80.57 226.179 82.95L226.249 83.44V83.86C226.669 85.0267 226.599 85.7967 226.039 86.17C225.526 86.4967 225.059 86.45 224.639 86.03C224.499 86.0767 223.963 86.0533 223.029 85.96C222.516 86.24 221.606 85.8667 220.299 84.84C220.019 84.6533 219.763 84.42 219.529 84.14C219.483 84.0467 219.413 83.86 219.319 83.58C219.133 82.9267 219.016 82.4133 218.969 82.04C218.549 81.2933 218.339 80.8267 218.339 80.64L217.919 77.28C218.106 77.2333 218.059 76.65 217.779 75.53C217.499 74.41 217.313 72.8933 217.219 70.98V70.35C217.219 69.4633 217.243 69.02 217.289 69.02C216.963 69.02 216.566 70.1867 216.099 72.52L215.609 74.83V75.53C215.423 75.9033 215.213 76.1833 214.979 76.37L212.809 85.33C212.903 85.7033 212.856 85.96 212.669 86.1C212.483 86.2867 212.133 86.4033 211.619 86.45H209.799C209.613 86.6367 209.333 86.73 208.959 86.73C207.793 86.73 207.139 86.3333 206.999 85.54C206.486 85.4 206.229 85.12 206.229 84.7V84.28C205.669 83.16 205.366 82.4367 205.319 82.11C205.319 81.7833 205.319 81.48 205.319 81.2C205.226 81.0133 205.179 80.7567 205.179 80.43C205.086 80.3367 205.039 80.08 205.039 79.66C204.806 79.0533 204.736 78.0733 204.829 76.72L204.759 75.88C204.806 75.2267 204.829 74.7367 204.829 74.41V73.15L204.899 72.52V71.75C204.899 71.5633 204.853 71.2367 204.759 70.77C204.899 70.5367 204.923 70.2567 204.829 69.93V68.18C204.829 67.2933 204.806 66.7567 204.759 66.57V64.47C204.713 63.8167 204.713 63.3733 204.759 63.14L204.479 60.62C204.573 59.7333 204.526 58.87 204.339 58.03C204.386 57.8433 204.293 56.8167 204.059 54.95C203.873 53.0833 203.826 51.9867 203.919 51.66C203.919 51.3333 203.873 50.9833 203.779 50.61C203.733 50.2367 203.779 49.9567 203.919 49.77C203.919 49.7233 203.873 49.42 203.779 48.86C203.686 48.3467 203.686 47.7867 203.779 47.18C203.686 46.9467 203.686 46.5733 203.779 46.06C203.919 45.92 203.943 45.64 203.849 45.22V44.03L204.129 43.33C204.036 43.05 203.989 42.7233 203.989 42.35ZM241.571 39.9C242.737 39.9 243.344 41.02 243.391 43.26C243.531 46.5267 243.414 49.8167 243.041 53.13C242.714 56.4433 242.434 59.8033 242.201 63.21L241.501 66.85L241.571 67.06C242.737 66.5467 243.881 65.59 245.001 64.19L245.141 64.12C245.794 63.4667 246.424 62.9767 247.031 62.65C247.171 62.3233 247.754 61.74 248.781 60.9C248.921 60.9 249.224 60.62 249.691 60.06C250.811 59.4533 251.487 59.08 251.721 58.94C251.954 58.7533 252.187 58.6133 252.421 58.52C252.654 58.38 253.144 58.2633 253.891 58.17C253.937 58.2167 254.147 58.31 254.521 58.45C254.894 58.59 255.151 58.73 255.291 58.87C256.177 59.71 255.991 60.8767 254.731 62.37C253.284 64.3767 251.791 66.0333 250.251 67.34C248.711 68.6467 247.591 69.4867 246.891 69.86C247.171 70.4667 247.637 71.19 248.291 72.03C248.851 73.5233 249.411 74.5267 249.971 75.04C250.857 76.4867 252.094 77.9567 253.681 79.45C253.774 79.4967 253.914 79.6833 254.101 80.01C254.334 80.3367 254.847 81.0133 255.641 82.04C256.341 82.5067 256.691 83.1367 256.691 83.93C256.644 84.2567 256.341 84.4667 255.781 84.56C255.267 84.7 254.684 84.7 254.031 84.56C253.797 84.6533 253.144 84.5367 252.071 84.21C251.977 84.1167 251.767 84 251.441 83.86C251.254 83.86 250.881 83.6733 250.321 83.3C249.621 83.3 249.177 83.2067 248.991 83.02C247.684 82.5533 247.007 82.0867 246.961 81.62C246.587 81.5267 246.237 81.2233 245.911 80.71C245.677 80.5233 245.327 79.94 244.861 78.96C244.674 78.9133 244.394 78.6567 244.021 78.19C243.647 77.6767 243.437 77.3733 243.391 77.28C243.391 77.14 243.344 77 243.251 76.86C243.157 76.6733 243.041 76.4633 242.901 76.23C241.921 74.5967 241.244 73.5933 240.871 73.22L240.731 74.9L240.521 75.95C240.661 76.3233 240.661 76.65 240.521 76.93C240.427 77.49 240.381 77.9333 240.381 78.26L240.101 81.2V82.53C240.147 83.1833 240.054 83.58 239.821 83.72C239.634 84.1867 238.911 84.3267 237.651 84.14L236.251 83.65L235.831 83.37C235.551 83.37 235.201 83.23 234.781 82.95C234.594 82.95 234.174 82.81 233.521 82.53C232.914 82.2033 232.541 81.8767 232.401 81.55C231.887 80.3367 231.817 79.2633 232.191 78.33C232.051 77.8633 232.004 77.4667 232.051 77.14C232.237 76.44 232.284 75.9967 232.191 75.81C232.191 75.4367 232.214 75.0633 232.261 74.69C232.307 74.3167 232.284 73.9667 232.191 73.64C232.284 73.1733 232.401 72.52 232.541 71.68C232.494 71.3067 232.494 70.98 232.541 70.7C232.587 70.42 232.611 70.1867 232.611 70C232.751 69.6267 232.821 69.16 232.821 68.6C232.821 67.76 232.891 67.06 233.031 66.5C233.311 65.5667 233.357 64.82 233.171 64.26L234.151 57.89C234.944 51.7767 235.807 46.9233 236.741 43.33L236.601 41.79C236.414 41.2767 236.694 40.6467 237.441 39.9C238.187 39.3867 238.747 39.1767 239.121 39.27C239.494 39.0367 240.311 39.2467 241.571 39.9ZM275.608 65.73C275.655 65.59 275.748 64.7733 275.888 63.28C275.795 63.14 275.678 62.6267 275.538 61.74C275.165 60.9933 274.675 60.4333 274.068 60.06C273.321 59.7333 272.878 59.57 272.738 59.57C272.318 59.71 272.015 59.8733 271.828 60.06C271.688 60.2 271.291 60.8533 270.638 62.02C270.031 63.1867 269.518 65.1233 269.098 67.83C268.725 70.5367 268.538 72.4967 268.538 73.71C268.538 74.9233 268.585 76.4167 268.678 78.19C268.771 79.9167 269.145 80.7333 269.798 80.64C270.405 80.5467 271.245 78.8667 272.318 75.6C272.365 75.3667 272.528 74.9467 272.808 74.34L275.608 65.73ZM283.798 62.86C283.798 65.3333 284.055 67.5967 284.568 69.65C284.801 71.7033 285.221 73.8967 285.828 76.23C285.968 77.1633 286.015 77.63 285.968 77.63C287.135 80.1967 287.788 81.7367 287.928 82.25C288.068 82.7167 288.045 83.1133 287.858 83.44V83.37C287.718 83.79 287.275 84.1633 286.528 84.49C285.828 84.8633 285.198 85.0967 284.638 85.19C282.865 85.75 281.815 85.0733 281.488 83.16C281.301 83.02 281.021 82.74 280.648 82.32C280.321 81.8533 280.135 81.48 280.088 81.2C280.041 80.8733 279.878 80.57 279.598 80.29C279.505 80.0567 279.295 79.7533 278.968 79.38C278.641 79.0067 278.455 78.6333 278.408 78.26L278.198 76.37L278.058 76.3C277.311 77.84 276.821 78.9133 276.588 79.52C276.028 81.1067 275.048 82.9267 273.648 84.98C272.061 86.7533 270.125 87.2667 267.838 86.52C266.998 86.4733 266.321 86.2167 265.808 85.75C265.341 85.2833 265.015 85.0267 264.828 84.98C264.548 84.8867 264.151 84.5367 263.638 83.93C262.798 82.81 262.285 81.1533 262.098 78.96V77.14C262.238 76.9067 262.238 75.7867 262.098 73.78V73.36C261.818 71.96 261.678 71.12 261.678 70.84C261.678 70.56 261.725 70.1867 261.818 69.72C261.911 69.2533 261.935 68.9733 261.888 68.88C261.841 68.74 261.818 68.53 261.818 68.25V67.2L262.168 63.42C262.681 61.7867 263.241 60.3167 263.848 59.01C264.035 58.2167 264.385 57.5867 264.898 57.12C266.065 55.86 266.695 55.1367 266.788 54.95C267.115 54.25 268.328 53.69 270.428 53.27L271.618 53.34C272.085 53.34 272.505 53.41 272.878 53.55C273.251 53.6433 273.508 53.69 273.648 53.69C274.301 54.0167 274.838 54.18 275.258 54.18C275.678 54.18 276.378 54.5067 277.358 55.16C277.638 55.2067 278.338 55.6033 279.458 56.35C280.671 57.1433 281.371 57.5867 281.558 57.68L283.378 58.31C283.891 58.73 284.148 58.9633 284.148 59.01C284.148 59.0567 284.031 60.34 283.798 62.86ZM292.913 63.35C292.913 62.93 292.867 62.44 292.773 61.88V61.39C292.82 61.0633 292.797 60.7133 292.703 60.34C292.703 59.8733 292.75 59.4533 292.843 59.08C292.843 58.1467 292.96 57.54 293.193 57.26C293.193 57.0267 293.52 56.49 294.173 55.65C294.36 55.4633 294.71 55.16 295.223 54.74C295.97 54.5067 296.483 54.3667 296.763 54.32C296.95 54.1333 297.58 54.2033 298.653 54.53C299.12 54.5767 299.843 54.74 300.823 55.02C301.15 55.1133 301.57 55.4867 302.083 56.14C301.99 56.3267 301.827 57.0267 301.593 58.24C301.407 59.4067 301.337 60.3633 301.383 61.11C301.663 60.8767 302.153 60.3867 302.853 59.64C303.553 58.8933 303.927 58.4967 303.973 58.45C305.187 57.89 306.377 57.4933 307.543 57.26C309.223 57.12 310.32 57.2367 310.833 57.61C311.253 57.75 311.58 57.96 311.813 58.24C312.233 58.6133 312.583 59.2667 312.863 60.2C313.143 61.0867 313.12 61.6467 312.793 61.88C312.513 62.1133 311.58 62.3 309.993 62.44C309.9 62.44 309.573 62.6267 309.013 63L305.373 65.87C304.627 66.2433 304.113 66.57 303.833 66.85L302.503 69.3C302.457 69.3933 302.41 70 302.363 71.12C302.317 72.24 302.317 73.0567 302.363 73.57C302.41 74.0367 302.41 75.6 302.363 78.26V81.27C302.363 82.9033 302.34 83.8367 302.293 84.07C302.247 84.35 302.06 84.8167 301.733 85.47C301.593 85.7033 301.15 85.82 300.403 85.82C298.583 87.1733 297.417 87.1033 296.903 85.61L295.993 85.05C295.62 84.8633 295.387 84.63 295.293 84.35C294.92 83.8367 294.733 83.5333 294.733 83.44L294.453 82.46L294.033 81.62C293.893 81.5733 293.777 80.6867 293.683 78.96C293.59 77.1867 293.543 76.1133 293.543 75.74C293.543 75.32 293.497 74.8767 293.403 74.41C293.73 74.0833 293.87 73.5233 293.823 72.73C293.823 71.9367 293.777 71.33 293.683 70.91C293.59 70.4433 293.59 70.1633 293.683 70.07C293.777 69.93 293.753 69.2767 293.613 68.11C293.473 67.9233 293.45 67.5733 293.543 67.06L292.913 63.35ZM328.953 41.93C328.859 43.0967 328.813 43.96 328.813 44.52C328.813 45.0333 328.789 45.5 328.743 45.92V47.74L328.673 48.23V49.7C328.673 50.12 328.649 50.54 328.603 50.96L331.052 50.47C331.239 50.47 331.916 50.3533 333.083 50.12C334.249 49.8867 335.299 49.7933 336.233 49.84C337.213 49.84 337.866 50.0267 338.193 50.4C338.566 50.7733 338.753 51.31 338.753 52.01C338.846 52.57 338.683 53.1067 338.263 53.62L337.983 54.04C337.609 54.6467 337.073 55.0433 336.373 55.23L333.923 55.58L330.773 56.35L328.883 57.05C328.929 58.2167 328.999 59.5 329.093 60.9C329.233 62.3 329.303 63.28 329.303 63.84L329.513 66.43C330.119 70.5367 330.913 74.7367 331.893 79.03C332.173 79.45 332.476 80.4067 332.803 81.9L333.363 83.37C333.549 84.9567 332.569 85.75 330.423 85.75C330.049 85.75 329.116 85.6567 327.623 85.47C327.203 85.4233 326.596 85.0033 325.803 84.21C325.803 84.1167 325.546 83.8133 325.033 83.3L323.703 80.08C323.609 79.94 323.493 79.4967 323.352 78.75C322.839 78.2367 322.419 77.07 322.093 75.25C322.093 75.1567 322.046 74.9233 321.953 74.55V73.57C321.626 73.2433 321.393 72.3333 321.253 70.84C321.113 69.3467 320.949 67.9467 320.763 66.64C320.763 64.82 320.623 63.07 320.343 61.39L320.203 59.85V59.22C320.249 58.7533 320.249 58.52 320.203 58.52H319.363C318.663 58.6133 318.079 58.6133 317.613 58.52C315.559 58.52 314.136 57.9367 313.343 56.77C312.782 55.51 312.759 54.6933 313.273 54.32C313.786 53.9467 315.046 53.5733 317.053 53.2C317.939 53.2 319.083 52.8967 320.483 52.29C320.483 51.1233 320.553 50.47 320.693 50.33C320.833 49.2567 320.973 48.58 321.113 48.3C321.299 47.9733 321.416 47.6467 321.463 47.32C321.509 46.2 321.906 44.5433 322.653 42.35C322.933 41.2767 323.189 40.5533 323.423 40.18C324.029 39.2933 325.289 39.0133 327.203 39.34C327.996 39.48 328.579 39.7833 328.953 40.25C329.093 40.2033 329.093 40.7633 328.953 41.93Z" fill="black"/>
<path d="M103.048 78.625H99.8437C98.3416 78.625 97.125 77.3944 97.125 75.875C97.125 74.3556 98.3416 73.125 99.8437 73.125H100.404C101.952 73.125 103.397 72.1336 103.798 70.6211C104.404 68.3345 102.693 66.25 100.523 66.25H78.0938V51.125H97.125C100.299 51.125 102.862 48.3365 102.534 45.0613C102.248 42.2081 99.7037 40.125 96.8681 40.125H84.8906C83.3885 40.125 82.1719 38.8944 82.1719 37.375C82.1719 35.8556 83.3885 34.625 84.8906 34.625H92.1728C93.9509 34.625 95.5699 33.3311 95.748 31.5423C95.9519 29.4839 94.36 27.75 92.3672 27.75H81.4922C80.3666 27.75 79.4531 26.826 79.4531 25.6875C79.4531 24.549 80.3666 23.625 81.4922 23.625H86.7353C88.5134 23.625 90.1324 22.3311 90.3105 20.5423C90.5144 18.4839 88.9225 16.75 86.9297 16.75H42.2647C40.4866 16.75 38.8676 18.0439 38.6896 19.8328C38.4856 21.8911 40.0775 23.625 42.0703 23.625H46.8281C48.3302 23.625 49.5469 24.8556 49.5469 26.375C49.5469 27.8944 48.3302 29.125 46.8281 29.125H29.4132C26.5775 29.125 24.0328 31.2068 23.7473 34.0613C23.4197 37.3365 25.9821 40.125 29.1563 40.125H32.5547C35.1824 40.125 37.3125 42.2796 37.3125 44.9375C37.3125 47.5954 35.1824 49.75 32.5547 49.75H28.0538C25.2182 49.75 22.6734 51.8318 22.3879 54.6863C22.0603 57.9615 24.6227 60.75 27.7969 60.75H50.9063V77.25H29.9556C28.4072 77.25 26.9622 78.2414 26.5612 79.7539C25.9549 82.0405 27.6664 84.125 29.8359 84.125H31.875C33.3771 84.125 34.5938 85.3556 34.5938 86.875C34.5938 88.3944 33.3771 89.625 31.875 89.625H29.4132C26.5775 89.625 24.0328 91.7068 23.7473 94.5613C23.4197 97.8365 25.9821 100.625 29.1563 100.625H96.8681C99.7037 100.625 102.248 98.5433 102.534 95.6888C102.862 92.4135 100.299 89.625 97.125 89.625H96.4453C95.3198 89.625 94.4063 88.701 94.4063 87.5625C94.4063 86.424 95.3198 85.5 96.4453 85.5H103.242C105.235 85.5 106.827 83.7661 106.623 81.7078C106.446 79.9189 104.826 78.625 103.048 78.625L103.048 78.625Z" fill="url(#paint0_radial)"/>
<path d="M40.0312 55.25C38.472 53.6729 38.472 51.1154 40.0312 49.5383L61.6671 27.6538C63.2263 26.0766 65.7547 26.0766 67.3139 27.6538C68.8731 29.2309 68.8731 31.7884 67.3139 33.3655L45.6781 55.25C44.1189 56.8271 41.5905 56.8271 40.0313 55.25L40.0312 55.25Z" fill="url(#paint1_linear)"/>
<path d="M90.3186 56.6346C91.8778 55.0575 91.8778 52.5 90.3186 50.9229L67.3139 27.6538C65.7547 26.0766 63.2263 26.0766 61.6671 27.6538C60.1078 29.2309 60.1078 31.7884 61.6671 33.3655L84.6731 56.6346C86.2323 58.2117 88.7594 58.2117 90.3186 56.6346V56.6346Z" fill="url(#paint2_linear)"/>
<path d="M97.125 58H31.875C29.6225 58 27.7969 56.1534 27.7969 53.875V51.125C27.7969 48.8466 29.6225 47 31.875 47H97.125C99.3775 47 101.203 48.8466 101.203 51.125V53.875C101.203 56.1534 99.3775 58 97.125 58Z" fill="url(#paint3_linear)"/>
<path d="M86.7625 89.625H42.2375C40.8251 89.625 39.4712 89.0571 38.472 88.0479C37.7162 87.2834 37.2065 86.3085 37.0066 85.247L31.875 58H97.125L91.9947 85.247C91.7949 86.3085 91.2838 87.2848 90.5293 88.0479C89.5302 89.0571 88.1749 89.625 86.7625 89.625Z" fill="url(#paint4_linear)"/>
<path d="M42.0703 77.25C43.9476 77.25 45.4688 75.7114 45.4688 73.8125C45.4688 71.9136 43.9476 70.375 42.0703 70.375H40.7109C38.8336 70.375 37.3125 68.8364 37.3125 66.9375C37.3125 65.0386 38.8336 63.5 40.7109 63.5H48.1875C49.6896 63.5 50.9063 62.2694 50.9063 60.75C50.9063 59.2306 49.6896 58 48.1875 58H31.875L35.5005 77.25H42.0703Z" fill="url(#paint5_linear)"/>
<path d="M75.269 62.851L61.3667 76.9076L55.0836 71.1079C54.1266 70.1399 52.5756 70.1399 51.6199 71.1079L51.6172 71.1106C50.6602 72.0773 50.6602 73.6461 51.6172 74.6141L59.2963 81.9278C60.4491 83.0346 62.2639 83.0126 63.3881 81.8755L78.7368 66.3559C79.6938 65.3893 79.6938 63.8204 78.7368 62.8524L78.734 62.8496C77.777 61.883 76.226 61.883 75.269 62.851H75.269Z" fill="#F1FCFF"/>
<defs>
<radialGradient id="paint0_radial" cx="0" cy="0" r="1" gradientUnits="userSpaceOnUse" gradientTransform="translate(64.5 58.6875) scale(41.8021 42.2826)">
<stop stop-color="#B8EFFF"/>
<stop offset="0.642" stop-color="#D4F6FF"/>
<stop offset="1" stop-color="#E5FAFF"/>
</radialGradient>
<linearGradient id="paint1_linear" x1="53.6726" y1="65.4181" x2="53.6726" y2="35.4569" gradientUnits="userSpaceOnUse">
<stop stop-color="#A4A4A4"/>
<stop offset="0.63" stop-color="#7F7F7F"/>
<stop offset="1" stop-color="#6F6F6F"/>
</linearGradient>
<linearGradient id="paint2_linear" x1="75.9935" y1="24.3166" x2="75.9935" y2="55.6625" gradientUnits="userSpaceOnUse">
<stop stop-color="#A4A4A4"/>
<stop offset="0.63" stop-color="#7F7F7F"/>
<stop offset="1" stop-color="#6F6F6F"/>
</linearGradient>
<linearGradient id="paint3_linear" x1="64.5" y1="46.5793" x2="64.5" y2="56.8423" gradientUnits="userSpaceOnUse">
<stop stop-color="#42D778"/>
<stop offset="0.996" stop-color="#34B171"/>
<stop offset="1" stop-color="#34B171"/>
</linearGradient>
<linearGradient id="paint4_linear" x1="64.5" y1="89.625" x2="64.5" y2="43.3893" gradientUnits="userSpaceOnUse">
<stop stop-color="#31995F"/>
<stop offset="0.093" stop-color="#329E62"/>
<stop offset="0.666" stop-color="#39BA71"/>
<stop offset="1" stop-color="#3BC477"/>
</linearGradient>
<linearGradient id="paint5_linear" x1="41.3906" y1="77.25" x2="41.3906" y2="58" gradientUnits="userSpaceOnUse">
<stop stop-color="#4AB177"/>
<stop offset="1" stop-color="#4DC17F"/>
</linearGradient>
</defs>
</svg>
